<?xml version="1.0" ?><!-- Uploaded to: SVG Repo, www.svgrepo.com, Transformed by: SVG Repo Mixer Tools -->
<svg width="800px" height="800px" viewBox="0 0 24 24" fill="none" xmlns="http://www.w3.org/2000/svg"><circle cx="12" cy="12" r="9" stroke="#ECFEFF" stroke-linecap="round" stroke-linejoin="round" stroke-width="2"/><path d="M16 4V4C16 5.10457 15.1046 6 14 6H13.5C12.6716 6 12 6.67157 12 7.5V8C12 8.55228 11.5523 9 11 9V9C10.4477 9 10 9.44772 10 10V11C10 12.1046 10.8954 13 12 13H14C15.1046 13 16 13.8954 16 15V15C16 16.1046 16.8954 17 18 17H19M11 21V18.5C11 17.6716 10.3153 17 9.48682 17V17C8.67282 17 8 16.3401 8 15.5261V15.5261C8 15.1859 7.88229 14.8561 7.66684 14.5928L3.5 9.5" stroke="#ECFEFF" stroke-linecap="round" stroke-linejoin="round" stroke-width="2"/></svg>