<?xml version="1.0" ?><!-- Uploaded to: SVG Repo, www.svgrepo.com, Generator: SVG Repo Mixer Tools -->
<svg fill="#000000" width="800px" height="800px" viewBox="0 0 35 35" data-name="Layer 2" id="b6de87db-e731-4627-aba6-6a97c219f0be" xmlns="http://www.w3.org/2000/svg"><path d="M17.5,25.88a8.38,8.38,0,1,1,8.38-8.38A8.389,8.389,0,0,1,17.5,25.88Zm0-14.26a5.88,5.88,0,1,0,5.88,5.88A5.887,5.887,0,0,0,17.5,11.62Z"/><path d="M17.5,5.471h-.034A1.251,1.251,0,0,1,16.25,4.187l.075-2.721A1.267,1.267,0,0,1,17.609.25a1.251,1.251,0,0,1,1.215,1.284l-.075,2.721A1.249,1.249,0,0,1,17.5,5.471Z"/><path d="M26.893,9.364a1.25,1.25,0,0,1-.859-2.158l1.978-1.871A1.25,1.25,0,0,1,29.73,7.151L27.752,9.022A1.242,1.242,0,0,1,26.893,9.364Z"/><path d="M33.5,18.837h-.036l-2.722-.077a1.249,1.249,0,0,1-1.213-1.284,1.211,1.211,0,0,1,1.285-1.214l2.721.077a1.25,1.25,0,0,1-.035,2.5Z"/><path d="M28.748,30.13a1.248,1.248,0,0,1-.909-.392L25.97,27.759a1.25,1.25,0,1,1,1.817-1.717l1.869,1.98a1.249,1.249,0,0,1-.908,2.108Z"/><path d="M17.4,34.75h-.037a1.249,1.249,0,0,1-1.213-1.285l.079-2.721a1.25,1.25,0,0,1,2.5.072l-.079,2.721A1.249,1.249,0,0,1,17.4,34.75Z"/><path d="M6.112,29.989a1.249,1.249,0,0,1-.857-2.159l1.98-1.867A1.25,1.25,0,1,1,8.95,27.781L6.969,29.648A1.242,1.242,0,0,1,6.112,29.989Z"/><path d="M4.221,18.72H4.184l-2.721-.081A1.25,1.25,0,0,1,.251,17.352,1.237,1.237,0,0,1,1.537,16.14l2.721.081a1.25,1.25,0,0,1-.037,2.5Z"/><path d="M8.135,9.335a1.248,1.248,0,0,1-.91-.393L5.359,6.961a1.25,1.25,0,1,1,1.82-1.715L9.046,7.228a1.251,1.251,0,0,1-.911,2.107Z"/></svg>